<?xml version="1.0" encoding="utf-8"?>
<!-- Generator: Adobe Illustrator 16.0.3, SVG Export Plug-In . SVG Version: 6.00 Build 0)  -->
<!DOCTYPE svg PUBLIC "-//W3C//DTD SVG 1.1//EN" "http://www.w3.org/Graphics/SVG/1.1/DTD/svg11.dtd">
<svg version="1.1" id="圖層_1" xmlns="http://www.w3.org/2000/svg" xmlns:xlink="http://www.w3.org/1999/xlink" x="0px" y="0px"
	 width="200px" height="200px" viewBox="0 0 200 200" enable-background="new 0 0 200 200" xml:space="preserve">
<g>
	<path fill="#F6C15E" d="M164.316,55.59c-10.785-2.909-22.918-0.731-32.927,3.604c-8.26,3.577-22.567,10.325-22.511,21.159
		c0.063,11.78,11.576,19.294,17.72,28.049c2.929,4.173,4.309,7.467,0.57,11.296c-4.616,4.729-10.732,8.353-16.472,11.533
		c-22.445,12.438-49.696,13.98-73.566,4.907c-3.922-1.491-7.659-3.461-11.29-5.552c-5.598-3.224-10.632,5.419-5.047,8.635
		c20.771,11.961,44.825,15.354,68.228,10.576c11.821-2.414,23.185-7.363,33.309-13.867c7.696-4.944,19.428-12.484,17.072-23.259
		c-2.315-10.592-11.688-17.165-17.688-25.544c-1.161-1.623-3.164-4.404-2.857-6.545c0.321-2.249,2.557-3.95,4.165-5.311
		c4.378-3.704,10.33-6.296,15.621-8.25c5.418-2,10.934-2.751,16.668-2.544c2.146,0.078,4.247,0.301,6.346,0.756
		c0.586,0.127,1.084,0.281,1.581,0.491c-1,3.379-5.071,6.456-7.556,8.602c-2.463,2.128-5.891,4.753-8.694,5.757
		c-6.025,2.157-3.429,11.822,2.658,9.643c7.769-2.781,15.307-9.17,20.174-15.724C175.433,66.443,173.928,58.183,164.316,55.59z"/>
	<path fill="#1F9E92" d="M152.318,38.154c-6.448,0-6.448,10,0,10S158.766,38.154,152.318,38.154z"/>
	<path fill="#1F9E92" d="M93.818,155.154h-0.75c-2.726,0-5,2.274-5,5s2.274,5,5,5h0.75c2.726,0,5-2.274,5-5
		S96.543,155.154,93.818,155.154z"/>
</g>
<path fill="#EB2B57" d="M177.165,109.454c-11.234,3.568-21.376,9.865-32.765,13.025c-5.306,1.472-11.189,2.004-16.294-0.433
	c-6.521-3.113-8.022-8.201-9.621-14.596c-3.789-15.16-24.757-5.203-33.602-1.694c-6.429,2.551-12.954,4.771-19.884,5.385
	c-5.227,0.462-6.518-1.25-7.105-6.395c-0.722-6.319-10.735-6.439-10.002-0.028c0.553,4.843,1.423,10.165,5.452,13.42
	c4.403,3.559,10.092,3.34,15.415,2.58c8.216-1.173,15.681-4.127,23.36-7.145c3.617-1.422,7.276-2.669,11.048-3.611
	c1.094-0.274,5.026-1.663,5.647,0.032c0.564,1.541,0.676,3.314,1.003,4.918c2.866,14.039,19.175,20.317,31.862,18.319
	c13.585-2.138,25.102-10,38.029-14.105C185.826,117.183,183.331,107.496,177.165,109.454z"/>
</svg>
